<?xml version="1.0" encoding="UTF-8" standalone="no"?>
<svg width="375px" height="467px" viewBox="0 0 375 467" version="1.1" xmlns="http://www.w3.org/2000/svg" xmlns:xlink="http://www.w3.org/1999/xlink" xmlns:sketch="http://www.bohemiancoding.com/sketch/ns">
    <!-- Generator: Sketch 3.3.3 (12072) - http://www.bohemiancoding.com/sketch -->
    <title>Artboard 1</title>
    <desc>Created with Sketch.</desc>
    <defs>
        <linearGradient x1="57.847844%" y1="0%" x2="15.4393598%" y2="100%" id="linearGradient-1">
            <stop stop-color="#F7B708" offset="0%"></stop>
            <stop stop-color="#F7AD09" offset="27.491126%"></stop>
            <stop stop-color="#F7271A" offset="51.8575783%"></stop>
            <stop stop-color="#F71C1C" offset="100%"></stop>
        </linearGradient>
        <filter x="-50%" y="-50%" width="200%" height="200%" filterUnits="objectBoundingBox" id="filter-2">
            <feOffset dx="0" dy="2" in="SourceAlpha" result="shadowOffsetOuter1"></feOffset>
            <feGaussianBlur stdDeviation="2" in="shadowOffsetOuter1" result="shadowBlurOuter1"></feGaussianBlur>
            <feColorMatrix values="0 0 0 0 0   0 0 0 0 0   0 0 0 0 0  0 0 0 0.35 0" in="shadowBlurOuter1" type="matrix" result="shadowMatrixOuter1"></feColorMatrix>
            <feOffset dx="0" dy="11" in="SourceAlpha" result="shadowOffsetOuter2"></feOffset>
            <feGaussianBlur stdDeviation="7.5" in="shadowOffsetOuter2" result="shadowBlurOuter2"></feGaussianBlur>
            <feColorMatrix values="0 0 0 0 0   0 0 0 0 0   0 0 0 0 0  0 0 0 0.35 0" in="shadowBlurOuter2" type="matrix" result="shadowMatrixOuter2"></feColorMatrix>
            <feOffset dx="0" dy="4" in="SourceAlpha" result="shadowOffsetInner1"></feOffset>
            <feGaussianBlur stdDeviation="1.5" in="shadowOffsetInner1" result="shadowBlurInner1"></feGaussianBlur>
            <feComposite in="shadowBlurInner1" in2="SourceAlpha" operator="arithmetic" k2="-1" k3="1" result="shadowInnerInner1"></feComposite>
            <feColorMatrix values="0 0 0 0 0   0 0 0 0 0   0 0 0 0 0  0 0 0 0.35 0" in="shadowInnerInner1" type="matrix" result="shadowMatrixInner1"></feColorMatrix>
            <feMerge>
                <feMergeNode in="shadowMatrixOuter1"></feMergeNode>
                <feMergeNode in="shadowMatrixOuter2"></feMergeNode>
                <feMergeNode in="SourceGraphic"></feMergeNode>
                <feMergeNode in="shadowMatrixInner1"></feMergeNode>
            </feMerge>
        </filter>
    </defs>
    <g id="Page-1" stroke="none" stroke-width="1" fill="none" fill-rule="evenodd" sketch:type="MSPage">
        <g id="Artboard-1" sketch:type="MSArtboardGroup" stroke="#4A4A4A" filter="url(#filter-2)" stroke-width="5" fill="url(#linearGradient-1)">
            <path d="M270.144135,112.882411 C270.144135,112.882411 221.419388,13.8985024 155.688919,21.769596 C161.147408,25.225542 181.226657,41.6197945 178.796875,42.2373772 C140.121342,52.0676178 68.0001097,115.875457 68.0001097,154.464072 C78.3967133,146.181411 86.2075748,142.378906 86.2075748,142.378906 C86.2075748,142.378906 68.0001097,212.400016 117.683594,251.683594 C171.078217,293.901483 248.897008,259.54976 249.878906,298.234375 C250.906786,338.730553 212.064535,367.407748 200.685669,385.956151 C214.936676,378.004003 238.30867,366.078832 253.655273,347.237371 C256.001572,383.890844 204.968875,426.410859 178.796875,427.681615 C124.155641,430.334668 58.2539062,380.132813 58.2539062,380.132813 C58.2539062,380.132813 95.4475327,441.778697 178.796875,441.312322 C240.436608,440.967422 273.541992,381.654485 279.202164,358.736242 C284.574554,369.053502 283.730331,387.435064 287.550018,410.110906 C301.742416,393.614141 307.886108,276.691595 273.337112,244.523137 C273.337112,244.523136 302.757812,247.763679 310.434479,251.683601 C279.202164,146.537972 145.148033,165.807213 126.894531,142.378906 C105.273443,114.628313 176.313263,72.75066 180.905937,65.510109 C217.776939,69.954731 270.144135,112.882411 270.144135,112.882411 Z" id="Path-1" sketch:type="MSShapeGroup"></path>
        </g>
    </g>
</svg>